<svg version="1.1" xmlns="http://www.w3.org/2000/svg" xmlns:xlink="http://www.w3.org/1999/xlink" width="50" height="50" viewBox="0,0,50,50"><g transform="translate(-215,-155)"><g data-paper-data="{&quot;isPaintingLayer&quot;:true}" fill-rule="nonzero" stroke="none" stroke-width="0.5" stroke-linecap="butt" stroke-linejoin="miter" stroke-miterlimit="10" stroke-dasharray="" stroke-dashoffset="0" style="mix-blend-mode: normal"><path d="M215,180c0,-13.80712 11.19288,-25 25,-25c13.80712,0 25,11.19288 25,25c0,13.80712 -11.19288,25 -25,25c-13.80712,0 -25,-11.19288 -25,-25zM239.88872,203.05638c12.42641,0 22.5,-10.07359 22.5,-22.5c0,-12.42641 -10.07359,-22.5 -22.5,-22.5c-12.42641,0 -22.5,10.07359 -22.5,22.5c0,12.42641 10.07359,22.5 22.5,22.5z" fill="#dacd38"/><path d="M217.33872,180.55638c0,-12.42641 10.12359,-22.55 22.55,-22.55c12.42641,0 22.55,10.12359 22.55,22.55c0,12.42641 -10.12359,22.55 -22.55,22.55c-12.42641,0 -22.55,-10.12359 -22.55,-22.55z" data-paper-data="{&quot;noHover&quot;:false,&quot;origItem&quot;:[&quot;Path&quot;,{&quot;applyMatrix&quot;:true,&quot;segments&quot;:[[[239.88872,203.05638],[-12.42641,0],[12.42641,0]],[[262.38872,180.55638],[0,12.42641],[0,-12.42641]],[[239.88872,158.05638],[12.42641,0],[-12.42641,0]],[[217.38872,180.55638],[0,-12.42641],[0,12.42641]]],&quot;closed&quot;:true,&quot;fillColor&quot;:[1,1,1]}]}" fill="#17ff00"/><path d="" fill="#ff2626"/><path d="" fill="#d1e268"/><path d="" fill="#b80000"/><path d="" fill="#b80000"/><path d="" fill="#b80000"/><path d="M234.55638,177.44065c0,-2.18477 1.16771,-4.09681 2.91307,-5.14604c-0.15636,0.01222 -0.3144,0.01844 -0.4739,0.01844c-3.31371,0 -6,-2.68629 -6,-6c0,-3.31371 2.68629,-6 6,-6c3.31371,0 6,2.68629 6,6c0,2.18477 -1.16771,4.09681 -2.91307,5.14604c0.15636,-0.01222 0.3144,-0.01844 0.4739,-0.01844c3.31371,0 6,2.68629 6,6c0,3.31371 -2.68629,6 -6,6c-1.43449,0 -2.75141,-0.50341 -3.78372,-1.3432c0.55923,0.91179 0.88165,1.98451 0.88165,3.13252c0,3.31371 -2.68629,6 -6,6c-3.31371,0 -6,-2.68629 -6,-6c0,-3.31371 2.68629,-6 6,-6c1.43449,0 2.75141,0.50341 3.78372,1.3432c-0.55923,-0.91179 -0.88165,-1.98451 -0.88165,-3.13252z" fill="#000000"/><path d="M245.23887,183.89466c0,-3.31371 2.68629,-6 6,-6c3.31371,0 6,2.68629 6,6c0,3.31371 -2.68629,6 -6,6c-3.31371,0 -6,-2.68629 -6,-6z" fill="#000000"/><path d="M245.46142,170.09644c0,-3.31371 2.68629,-6 6,-6c3.31371,0 6,2.68629 6,6c0,3.31371 -2.68629,6 -6,6c-3.31371,0 -6,-2.68629 -6,-6z" fill="#000000"/><path d="M219.6454,173.65727c0,-3.31371 2.68629,-6 6,-6c3.31371,0 6,2.68629 6,6c0,3.31371 -2.68629,6 -6,6c-3.31371,0 -6,-2.68629 -6,-6z" fill="#000000"/><path d="M235.44659,196.35757c0,-3.31371 2.68629,-6 6,-6c3.31371,0 6,2.68629 6,6c0,3.31371 -2.68629,6 -6,6c-3.31371,0 -6,-2.68629 -6,-6z" fill="#000000"/></g></g></svg>