<svg version="1.1" xmlns="http://www.w3.org/2000/svg" xmlns:xlink="http://www.w3.org/1999/xlink" width="449.31801" height="175.09928" viewBox="0,0,449.31801,175.09928"><g transform="translate(-7.48766,-100.65623)"><g data-paper-data="{&quot;isPaintingLayer&quot;:true}" fill-rule="nonzero" stroke-linecap="butt" stroke-linejoin="miter" stroke-miterlimit="10" stroke-dasharray="" stroke-dashoffset="0" style="mix-blend-mode: normal"><path d="M309.40154,224.35904v50.17334h130.96131v-50.17334z" fill="#ababab" stroke="#000000" stroke-width="0"/><path d="M316.27815,231.20703v-84.42694h68.19618v84.42694z" data-paper-data="{&quot;index&quot;:null}" fill="#ababab" stroke="#000000" stroke-width="0"/><path d="M170.47433,160.78009v94.42694h-56.19618v-94.42694z" data-paper-data="{&quot;index&quot;:null}" fill="#ababab" stroke="#000000" stroke-width="0"/><path d="M390.27816,132.78008v142.42694h56.19617v-142.42694z" fill="#ababab" stroke="#000000" stroke-width="0"/><path d="M32.90664,213.21388v-0.45797h78.17756v0.45797z" fill="none" stroke="#000000" stroke-width="15"/><path d="M30.40154,219.35904v43.17334h86.96131v-43.17334z" fill="#ababab" stroke="#000000" stroke-width="0"/><path d="M14.84754,267.65623v-6.24402h160.70814v6.24402z" fill="#000000" stroke="#000000" stroke-width="14.5"/><path d="M389.23815,217.84762v-82.55981h-0.00049v82.55981z" fill="none" stroke="#000000" stroke-width="13"/><path d="M448.49587,268.00551v-132.02392h-0.00078v132.02392z" fill="none" stroke="#000000" stroke-width="15.5"/><path d="M384.03414,138.75672v-11.10048h70.07177v11.10048z" fill="#ef1b1b" stroke="none" stroke-width="0"/><path d="M74.05523,127.78009v126.42694h-56.19617v-126.42694z" data-paper-data="{&quot;index&quot;:null}" fill="#ababab" stroke="#000000" stroke-width="0"/><path d="M75.09524,212.84762v-82.55981h0.00048v82.55981z" data-paper-data="{&quot;index&quot;:null}" fill="none" stroke="#000000" stroke-width="13"/><path d="M15.23767,251.00552v-120.02392h0.0007v120.02392z" data-paper-data="{&quot;index&quot;:null}" fill="none" stroke="#000000" stroke-width="15.5"/><path d="M12.69443,137.65624v-14h69v14z" fill="#000000" stroke="none" stroke-width="0"/><path d="M17.69443,140.65624v-40h56v40z" fill="#ffb900" stroke="none" stroke-width="0"/><path d="M116.55452,213.20466v-63.90861h0.00062v63.90862z" data-paper-data="{&quot;index&quot;:null}" fill="none" stroke="#000000" stroke-width="13"/><path d="M175.52373,253.27167v-91.55622h0.00089v91.55622z" data-paper-data="{&quot;index&quot;:null}" fill="none" stroke="#000000" stroke-width="15.5"/><path d="M123.40154,145.35904v43.17334h199.96131v-43.17334z" fill="#ababab" stroke="#000000" stroke-width="0"/><path d="M116.84754,143.65624v-6.24402h260.70813v6.24402z" fill="#000000" stroke="#000000" stroke-width="14.5"/><path d="M174.84754,198.65624v-6.24402h130.70814v6.24402z" fill="#000000" stroke="#000000" stroke-width="14.5"/><path d="M309.81674,191.93107v76.23604h-0.00108v-76.23604z" data-paper-data="{&quot;index&quot;:null}" fill="none" stroke="#000000" stroke-width="13"/><path d="M314.84754,268.25061v-3.43277h134.70813v3.43277z" fill="#000000" stroke="#000000" stroke-width="14.5"/></g></g></svg>